<svg xmlns="http://www.w3.org/2000/svg">
    <symbol id="call" viewBox="0 0 19 19" xmlns="http://www.w3.org/2000/svg">
        <path d="M9.77423 8.22389C9.77423 8.41289 9.92786 8.56139 10.1156 8.56139C10.5048 8.56139 10.8189 8.87526 10.8189 9.25664C10.8189 9.44226 10.9725 9.59414 11.1602 9.59414C11.348 9.59414 11.5016 9.44226 11.5016 9.25664C11.5016 8.50064 10.8803 7.88639 10.1156 7.88639C9.92786 7.88639 9.77423 8.03827 9.77423 8.22389ZM15.3319 9.59414C15.5231 9.59414 15.6733 9.44226 15.6733 9.25664C15.6733 6.22589 13.1812 3.76215 10.1156 3.76215C9.92786 3.76215 9.77423 3.914 9.77423 4.09965C9.77423 4.28527 9.92786 4.43715 10.1156 4.43715C12.8057 4.43715 14.9905 6.60051 14.9905 9.25664C14.9905 9.44226 15.1441 9.59414 15.3319 9.59414Z" fill="#161C35"/>
        <path d="M12.9047 9.25661C12.9047 9.44223 13.0583 9.59411 13.2461 9.59411C13.4338 9.59411 13.5874 9.44223 13.5874 9.25661C13.5874 7.36324 12.0307 5.82424 10.1156 5.82424C9.92786 5.82424 9.77423 5.97612 9.77423 6.16174C9.77423 6.35074 9.92786 6.49924 10.1156 6.49924C11.6552 6.49924 12.9047 7.73786 12.9047 9.25661ZM10.1156 1.69998C9.92786 1.69998 9.77423 1.85186 9.77423 2.03748C9.77423 2.22312 9.92786 2.37498 10.1156 2.37498C13.9561 2.37498 17.0798 5.46312 17.0798 9.25661C17.0798 9.44223 17.23 9.59411 17.4211 9.59411C17.6089 9.59411 17.7625 9.44223 17.7625 9.25661C17.7625 5.0885 14.3316 1.69998 10.1156 1.69998ZM13.4509 12.8139L13.0037 13.0535C12.2492 13.4619 11.6621 14.5812 10.7311 13.7375L8.30007 11.3L6.2 9.25661C5.14491 7.92348 6.32631 7.60623 6.73936 6.85699L6.98175 6.41825C7.25485 5.91873 7.35384 5.35849 7.27191 4.79823C7.1934 4.23799 6.93737 3.72836 6.52771 3.32336C6.02931 2.83062 5.36703 2.56062 4.66038 2.56062C3.95372 2.56062 3.28802 2.83062 2.7896 3.32336L2.61552 3.49886C1.69379 4.41012 1.58796 5.97948 2.3151 7.92348C3.00126 9.77973 4.38386 11.7912 6.2 13.5867C8.96858 16.3239 12.0512 17.9 14.2634 17.9C15.1373 17.9 15.8781 17.6536 16.4038 17.1339L16.5813 16.9584C17.0763 16.469 17.3529 15.8142 17.3563 15.1089C17.3529 14.4204 17.0695 13.7454 16.5813 13.2627C15.7586 12.4494 14.4716 12.2671 13.4509 12.8139Z" fill="#161C35"/>
    </symbol>
    <symbol id="email"  viewBox="0 0 19 17" xmlns="http://www.w3.org/2000/svg">
        <path d="M2.01661 3.32528L8.76661 7.55572C8.99341 7.69747 9.28681 7.76467 9.58201 7.76467C9.87721 7.76467 10.1706 7.69747 10.3974 7.55572L17.1474 3.32528C17.5875 3.04913 18.0033 1.97498 17.196 1.97498H1.96891C1.16161 1.97498 1.57741 3.04913 2.01661 3.32528ZM17.3517 5.63842L10.3974 9.86677C10.0914 10.0537 9.87721 10.0757 9.58201 10.0757C9.28681 10.0757 9.07261 10.0537 8.76661 9.86677C8.46061 9.67987 2.34691 5.94082 1.84741 5.63737C1.49641 5.42317 1.50001 5.67412 1.50001 5.86732V13.525C1.50001 13.966 2.00941 14.575 2.40001 14.575H16.8C17.1906 14.575 17.7 13.966 17.7 13.525V5.86837C17.7 5.67517 17.7036 5.42422 17.3517 5.63842Z" fill="#161C35"/>
    </symbol>
    <symbol id="telephone" width="19" height="17" viewBox="0 0 19 17" fill="none" xmlns="http://www.w3.org/2000/svg">
        <path fill-rule="evenodd" clip-rule="evenodd" d="M9.50001 1.08615C6.70357 1.08615 3.90039 1.55882 2.88328 2.50093C2.0394 3.28252 1.7581 4.66329 1.66328 5.53753C1.66328 5.53753 1.65021 5.62393 1.65021 5.66109C1.65021 6.00391 1.94451 6.27887 2.30433 6.27887C2.34684 6.27887 3.92008 6.15837 4.86857 6.08425C4.8914 6.08112 4.9144 6.07806 4.93722 6.07191C5.29049 6.0627 5.57511 5.7908 5.57511 5.45413L5.57828 4.237C5.57828 3.86014 5.9022 3.55737 6.30126 3.55737H12.6987C13.0978 3.55737 13.4218 3.86011 13.4218 4.237L13.425 5.45413C13.425 5.7908 13.7096 6.0627 14.0628 6.07191C14.0855 6.0781 14.1085 6.08112 14.1316 6.08425C15.0802 6.15834 16.6534 6.27887 16.6957 6.27887C17.0554 6.27887 17.3499 6.00391 17.3499 5.66109C17.3499 5.62393 17.3369 5.53753 17.3369 5.53753C17.242 4.66329 16.961 3.28255 16.1171 2.50093C15.0996 1.55882 12.2965 1.08615 9.50001 1.08615ZM9.50001 9.11773C8.77717 9.11773 8.1917 9.67064 8.1917 10.3533C8.1917 11.036 8.77717 11.5889 9.50001 11.5889C10.2229 11.5889 10.8083 11.036 10.8083 10.3533C10.8083 9.67064 10.2229 9.11773 9.50001 9.11773ZM8.51879 6.33752V5.56528C8.51879 5.13902 8.15242 4.79304 7.70113 4.79304C7.24983 4.79304 6.88346 5.13905 6.88346 5.56528V6.33752L2.47101 10.7889C2.16695 11.07 1.9772 11.4622 1.9772 11.8948V13.1335C1.9772 13.8162 2.5627 14.3691 3.28551 14.3691H3.6126V15.1414C3.6126 15.5677 3.97901 15.9136 4.43031 15.9136C4.8816 15.9136 5.24798 15.5677 5.24798 15.1414V14.3691H13.752V15.1414C13.752 15.5677 14.1183 15.9136 14.5698 15.9136C15.0211 15.9136 15.3874 15.5677 15.3874 15.1414V14.3691H15.7145C16.4373 14.3691 17.0228 13.8162 17.0228 13.1335V11.8948C17.0228 11.4622 16.833 11.07 16.5289 10.7889L12.1167 6.33752V5.56528C12.1167 5.13902 11.7502 4.79304 11.2989 4.79304C10.8476 4.79304 10.4813 5.13905 10.4813 5.56528V6.33752H8.51879ZM9.50001 7.8821C10.9457 7.8821 12.1167 8.98799 12.1167 10.3533C12.1167 11.7187 10.9457 12.8247 9.50001 12.8247C8.05432 12.8247 6.88342 11.7187 6.88342 10.3533C6.88342 8.98795 8.05432 7.8821 9.50001 7.8821Z" fill="#FFD74B"/>
    </symbol>
    <symbol id="email-2" width="24" height="25" viewBox="0 0 24 25" fill="none" xmlns="http://www.w3.org/2000/svg">
        <path fill-rule="evenodd" clip-rule="evenodd" d="M19.1393 16.4663L14.8089 12.5L19.1393 8.53365L18.5488 7.90264L12.25 13.6719L5.9512 7.90264L5.36069 8.53365L9.69111 12.5L5.36069 16.4663L5.9512 17.0974L10.3308 13.0859L12.25 14.8438L14.1692 13.0859L18.5488 17.0974L19.1393 16.4663ZM4.57597 6.25C3.76695 6.25 3.11111 6.94884 3.11111 7.80786V17.1921C3.11111 18.0525 3.76163 18.75 4.57597 18.75H19.924C20.7331 18.75 21.3889 18.0512 21.3889 17.1921V7.80786C21.3889 6.94748 20.7384 6.25 19.924 6.25H4.57597Z" fill="#FFD74B"/>
    </symbol>
</svg>
